<?xml version="1.0" encoding="UTF-8"?>
<svg version="1.1" xmlns="http://www.w3.org/2000/svg" width="500" height="500">
<path d="M0 0 C1.06476563 0.63292969 2.12953125 1.26585938 3.2265625 1.91796875 C8.87265332 5.3842397 8.87265332 5.3842397 11 7 C11 7.66 11 8.32 11 9 C6.86713903 7.71000937 3.11639558 6.12581207 -0.75 4.1875 C-33.06512653 -10.95211827 -73.53867215 -11.11570846 -107 0 C-108.83884766 0.59554687 -108.83884766 0.59554687 -110.71484375 1.203125 C-118.70505447 3.92158948 -126.09747785 7.45138245 -133.5 11.5 C-134.3245166 11.95060791 -135.1490332 12.40121582 -135.99853516 12.86547852 C-140.76374185 15.54379333 -145.11999743 18.46331432 -149.38867188 21.88085938 C-151 23 -151 23 -153 23 C-153 23.66 -153 24.32 -153 25 C-154.6171875 26.375 -154.6171875 26.375 -156.875 28 C-184.51342471 49.0311138 -202.071666 83.27664642 -208 117 C-208.12391113 117.70286133 -208.24782227 118.40572266 -208.37548828 119.12988281 C-214.84949028 158.22884845 -204.19056528 199.11181465 -181.4296875 231.21484375 C-173.72822972 241.50205668 -164.69569452 250.69340487 -154.984375 259.07421875 C-154.00210938 260.02748047 -154.00210938 260.02748047 -153 261 C-153 261.66 -153 262.32 -153 263 C-160.28059806 261.83912685 -166.70081067 259.78002128 -173.4375 256.8125 C-174.8133728 256.21465698 -174.8133728 256.21465698 -176.21704102 255.60473633 C-182.93993085 252.61937002 -188.99792964 249.26813892 -195 245 C-196.22761559 244.22669884 -197.45652746 243.45544617 -198.6875 242.6875 C-199.450625 242.130625 -200.21375 241.57375 -201 241 C-201 240.34 -201 239.68 -201 239 C-201.58394531 238.731875 -202.16789062 238.46375 -202.76953125 238.1875 C-223.64968387 227.07092137 -236.88851726 199.50520417 -244 178 C-245.26588471 173.69407397 -246.23168297 169.42052826 -247 165 C-247.30550781 163.25009766 -247.30550781 163.25009766 -247.6171875 161.46484375 C-254.03292939 119.67463456 -240.56037626 77.59524855 -216.8828125 43.31640625 C-216.26148438 42.55199219 -215.64015625 41.78757812 -215 41 C-214.34 41 -213.68 41 -213 41 C-212.72800781 40.41089844 -212.45601562 39.82179687 -212.17578125 39.21484375 C-208.68416199 32.63760747 -202.52091586 27.42651503 -197.3125 22.1875 C-196.75393311 21.62426025 -196.19536621 21.06102051 -195.61987305 20.48071289 C-188.10994301 13 -188.10994301 13 -185 13 C-185 12.34 -185 11.68 -185 11 C-132.53844759 -30.43270333 -56.87209114 -33.88953376 0 0 Z " fill="#FEFEFE" transform="translate(334,108)"/>
<path d="M0 0 C2.15663806 3.46334656 2.12075814 5.83584286 1.71484375 9.84765625 C1.59923096 11.00072266 1.48361816 12.15378906 1.36450195 13.34179688 C1.22359131 14.56962891 1.08268066 15.79746094 0.9375 17.0625 C0.79465576 18.32513672 0.65181152 19.58777344 0.50463867 20.88867188 C-2.21751778 43.30542325 -9.46464284 64.54563334 -21 84 C-21.55300781 84.93972656 -22.10601562 85.87945312 -22.67578125 86.84765625 C-29.21060266 97.52870917 -37.48610368 106.86242814 -46 116 C-46.74636719 116.81210937 -47.49273437 117.62421875 -48.26171875 118.4609375 C-77.19211642 148.77808151 -119.96112263 163.95309955 -161.15234375 165.19140625 C-162.83063433 165.21786001 -164.50904671 165.23760496 -166.1875 165.25 C-166.95288086 165.25926514 -167.71826172 165.26853027 -168.50683594 165.27807617 C-173.63403457 165.24936656 -178.06842543 164.40742559 -183 163 C-183 162.67 -183 162.34 -183 162 C-182.37770508 161.88519287 -181.75541016 161.77038574 -181.11425781 161.65209961 C-150.53109509 155.90863777 -121.48624009 145.47955399 -97.98364258 124.40307617 C-94.18005952 121 -94.18005952 121 -92 121 C-91.773125 120.443125 -91.54625 119.88625 -91.3125 119.3125 C-89.62449964 116.33840412 -87.53323483 114.27991135 -85 112 C-84.34 112 -83.68 112 -83 112 C-82.77699219 111.47535156 -82.55398438 110.95070313 -82.32421875 110.41015625 C-80.51950875 107.12547758 -78.16622148 104.33605711 -75.8125 101.4375 C-60.48004272 82.16859988 -51.72554058 61.17662173 -44 38 C-85.25 38 -126.5 38 -169 38 C-169 25.79 -169 13.58 -169 1 C-148.14637412 0.86935212 -127.29274697 0.73891139 -106.43911743 0.60884857 C-96.75612301 0.54844969 -87.07312918 0.48795784 -77.39013672 0.42724609 C-68.94909689 0.37432155 -60.50805598 0.3215725 -52.06701374 0.26903296 C-47.59880302 0.24121539 -43.13059289 0.21331078 -38.66238403 0.18519592 C-34.45342197 0.15871507 -30.24445849 0.13246956 -26.03549385 0.10640144 C-24.49402373 0.09681347 -22.95255413 0.08714087 -21.41108513 0.07737541 C-7.06471007 -0.01342341 -7.06471007 -0.01342341 0 0 Z " fill="#FEFEFE" transform="translate(413,250)"/>
</svg>
